<svg width="516" height="247" viewBox="0 0 516 247" fill="none" xmlns="http://www.w3.org/2000/svg">
<mask id="mask0" mask-type="alpha" maskUnits="userSpaceOnUse" x="0" y="0" width="516" height="247">
<path d="M503.376 0H12.6239C5.65189 0 0 4.42343 0 9.88V237.12C0 242.577 5.65189 247 12.6239 247H503.376C510.348 247 516 242.577 516 237.12V9.88C516 4.42343 510.348 0 503.376 0Z" fill="white"/>
</mask>
<g mask="url(#mask0)">
<g filter="url(#filter0_d)">
<path d="M503.376 0H12.6239C5.65189 0 0 4.42343 0 9.88V237.12C0 242.577 5.65189 247 12.6239 247H503.376C510.348 247 516 242.577 516 237.12V9.88C516 4.42343 510.348 0 503.376 0Z" fill="black"/>
</g>
<path d="M503.376 0H12.6239C5.65189 0 0 4.42343 0 9.88V237.12C0 242.577 5.65189 247 12.6239 247H503.376C510.348 247 516 242.577 516 237.12V9.88C516 4.42343 510.348 0 503.376 0Z" fill="#C5C7D0"/>
<path fill-rule="evenodd" clip-rule="evenodd" d="M394.495 97.2612C393.246 100.052 372.345 117.066 369.926 119.289C339.664 141.895 325.473 150.754 311.789 148.721C306.526 147.959 302.052 145.42 299.158 141.61C286.001 124.083 308.368 95.8891 324.42 76.0773C310.736 84.4592 293.369 97.6675 277.054 109.859C261.265 121.797 246.266 132.974 234.95 139.832C233.634 140.848 228.899 143.642 225.214 140.086C221.004 136.275 223.898 131.957 233.109 118.241C238.371 110.367 250.74 91.8247 249.949 86.4908C238.635 82.4276 180.322 135.404 162.428 151.914L156.902 157.249C155.586 158.264 153.219 160.55 150.323 160.55C149.271 160.55 147.956 160.296 146.902 159.28C142.429 155.724 155.218 143.642 170.48 120.02C178.112 108.59 187.848 93.6031 192.847 83.4428C181.533 89.0312 162.06 99.3002 139.705 114.087C136.991 115.58 125.858 122.629 121.505 125.407C124.597 120.427 132.352 112.812 135.912 109.858C173.436 78.7535 196.531 67.4409 203.373 72.2673C204.426 72.7749 207.583 75.5684 205.74 80.6492C202.846 89.0312 183.791 115.79 174.582 130.268C206.949 101.312 241.793 70.7433 256.002 77.8544C258.369 79.1252 259.949 80.9036 260.476 83.696C262.317 91.8247 254.95 104.525 243.634 121.544C251.792 115.702 261.001 108.843 270.476 101.731C295.737 82.6808 321.788 62.8689 337.051 58.5514C341.524 57.0274 343.893 59.3134 344.682 60.5829C347.577 64.9005 344.682 68.4573 334.946 80.1416C323.368 94.1107 299.157 123.575 308.104 135.513C309.158 137.291 311 138.053 313.105 138.308C320.474 139.577 336.743 139.234 370.688 114.087C373.118 112.595 391.434 98.2912 394.495 97.2612V97.2612ZM168.844 189.785C169.993 189.691 170.73 189.481 171.055 189.156C171.38 188.832 171.544 188.079 171.544 186.898V177.798C171.544 176.989 171.386 176.462 171.069 176.217C170.753 175.974 170.034 175.829 168.912 175.785V175.37H174.405L180.835 186.668L186.98 175.37H192.514V175.786C191.483 175.844 190.819 175.996 190.519 176.239C190.221 176.484 190.073 177.004 190.073 177.798V187.762C190.073 188.578 190.221 189.102 190.519 189.33C190.819 189.561 191.482 189.713 192.514 189.785V190.19H184.728V189.785C185.848 189.712 186.547 189.55 186.824 189.298C187.1 189.048 187.237 188.446 187.237 187.499V177.437L180.13 190.19H179.751L172.764 177.962V186.898C172.764 188.123 172.985 188.922 173.428 189.293C173.718 189.534 174.365 189.697 175.369 189.785V190.19H168.844V189.785V189.785ZM208.294 190.19V189.792C208.999 189.728 209.528 189.513 209.879 189.148C210.231 188.782 210.836 187.789 211.694 186.171L217.406 175.37H217.943L224.768 187.847C225.222 188.678 225.585 189.193 225.857 189.39C226.129 189.587 226.587 189.721 227.229 189.792V190.19H220.258V189.792C221.059 189.736 221.577 189.665 221.809 189.582C222.041 189.501 222.156 189.298 222.156 188.976C222.156 188.869 222.114 188.678 222.024 188.405C221.925 188.112 221.8 187.825 221.65 187.546L220.512 185.429H213.338C212.897 186.304 212.47 187.183 212.06 188.067C211.923 188.387 211.853 188.639 211.853 188.825C211.853 189.198 212.041 189.455 212.415 189.598C212.647 189.685 213.084 189.749 213.727 189.792V190.19H208.294V190.19ZM219.339 184.015L216.163 177.84L213.028 184.015H219.339ZM243.655 185.579C244.13 186.546 244.688 187.316 245.327 187.889C246.444 188.891 247.83 189.392 249.485 189.392C250.381 189.392 251.158 189.175 251.811 188.74C252.466 188.307 252.793 187.7 252.793 186.925C252.793 186.223 252.463 185.614 251.805 185.097C251.374 184.767 250.47 184.273 249.088 183.615L246.686 182.47C245.963 182.121 245.387 181.766 244.958 181.409C244.161 180.73 243.763 179.982 243.763 179.161C243.763 178.076 244.235 177.173 245.177 176.452C246.119 175.731 247.368 175.37 248.923 175.37C249.564 175.37 250.334 175.491 251.235 175.732C252.136 175.974 252.651 176.095 252.778 176.095C253.126 176.095 253.367 176.032 253.5 175.906C253.632 175.78 253.736 175.601 253.807 175.37H254.385L255.002 179.949H254.33C253.872 178.57 253.138 177.607 252.127 177.061C251.117 176.515 250.116 176.242 249.129 176.242C248.36 176.242 247.691 176.415 247.118 176.761C246.547 177.109 246.261 177.589 246.261 178.206C246.261 178.759 246.481 179.231 246.919 179.623C247.36 180.023 248.04 180.438 248.964 180.873L251.434 182.039C252.98 182.768 254.069 183.437 254.7 184.046C255.322 184.662 255.633 185.39 255.633 186.231C255.633 187.358 255.078 188.299 253.965 189.056C252.854 189.812 251.434 190.19 249.705 190.19C248.837 190.19 247.928 190.064 246.981 189.812C246.034 189.56 245.493 189.434 245.356 189.434C245.026 189.434 244.803 189.511 244.69 189.665C244.576 189.82 244.5 189.984 244.464 190.159H243.845L243.009 185.579H243.655V185.579ZM272.058 185.579C272.533 186.546 273.092 187.316 273.731 187.889C274.848 188.891 276.234 189.392 277.889 189.392C278.785 189.392 279.562 189.175 280.215 188.74C280.87 188.307 281.196 187.7 281.196 186.925C281.196 186.223 280.867 185.614 280.209 185.097C279.778 184.767 278.874 184.273 277.491 183.615L275.09 182.47C274.367 182.121 273.791 181.766 273.362 181.409C272.565 180.73 272.167 179.982 272.167 179.161C272.167 178.076 272.639 177.173 273.581 176.452C274.523 175.731 275.771 175.37 277.327 175.37C277.968 175.37 278.738 175.491 279.639 175.732C280.54 175.974 281.054 176.095 281.182 176.095C281.529 176.095 281.771 176.032 281.903 175.906C282.036 175.78 282.14 175.601 282.211 175.37H282.788L283.405 179.949H282.733C282.276 178.57 281.542 177.607 280.53 177.061C279.52 176.515 278.52 176.242 277.532 176.242C276.764 176.242 276.095 176.415 275.522 176.761C274.951 177.109 274.665 177.589 274.665 178.206C274.665 178.759 274.884 179.231 275.323 179.623C275.763 180.023 276.443 180.438 277.368 180.873L279.838 182.039C281.384 182.768 282.473 183.437 283.104 184.046C283.726 184.662 284.037 185.39 284.037 186.231C284.037 187.358 283.481 188.299 282.369 189.056C281.258 189.812 279.838 190.19 278.108 190.19C277.24 190.19 276.331 190.064 275.385 189.812C274.438 189.56 273.897 189.434 273.759 189.434C273.429 189.434 273.207 189.511 273.093 189.665C272.98 189.82 272.904 189.984 272.868 190.159H272.249L271.413 185.579H272.058V185.579ZM301.394 189.785C302.423 189.705 303.067 189.535 303.321 189.277C303.577 189.018 303.705 188.425 303.705 187.499V177.798C303.705 177.018 303.563 176.504 303.275 176.256C302.99 176.009 302.362 175.852 301.394 175.786V175.37H308.522C310.81 175.37 312.562 175.738 313.775 176.474C314.99 177.211 315.596 178.181 315.596 179.384C315.596 180.908 314.923 182.013 313.576 182.699C312.23 183.384 310.547 183.726 308.522 183.726C308.232 183.726 307.859 183.721 307.407 183.71C306.954 183.698 306.618 183.693 306.397 183.693V187.762C306.397 188.608 306.554 189.14 306.865 189.359C307.178 189.577 307.875 189.719 308.958 189.785V190.19H301.394V189.785ZM312.44 179.606C312.44 178.335 311.721 177.463 310.283 176.99C309.51 176.733 308.535 176.605 307.353 176.605C306.794 176.605 306.45 176.647 306.321 176.732C306.193 176.816 306.128 177.004 306.128 177.294V182.71C306.618 182.743 306.936 182.763 307.088 182.77C307.238 182.776 307.384 182.78 307.527 182.78C308.778 182.78 309.764 182.644 310.482 182.375C311.789 181.881 312.44 180.958 312.44 179.606V179.606ZM328.22 190.19V189.792C328.926 189.728 329.454 189.513 329.806 189.148C330.158 188.782 330.762 187.789 331.621 186.171L337.333 175.37H337.87L344.694 187.847C345.149 188.678 345.512 189.193 345.783 189.39C346.056 189.587 346.514 189.721 347.156 189.792V190.19H340.184V189.792C340.986 189.736 341.504 189.665 341.736 189.582C341.968 189.501 342.083 189.298 342.083 188.976C342.083 188.869 342.04 188.678 341.95 188.405C341.852 188.112 341.727 187.825 341.576 187.546L340.438 185.429H333.265C332.823 186.304 332.397 187.183 331.987 188.067C331.85 188.387 331.78 188.639 331.78 188.825C331.78 189.198 331.968 189.455 332.342 189.598C332.574 189.685 333.011 189.749 333.653 189.792V190.19H328.22ZM339.266 184.015L336.09 177.84L332.954 184.015H339.266Z" fill="#292F48" fill-opacity="0.3"/>
</g>
<defs>
<filter id="filter0_d" x="-20" y="-20" width="556" height="287" filterUnits="userSpaceOnUse" color-interpolation-filters="sRGB">
<feFlood flood-opacity="0" result="BackgroundImageFix"/>
<feColorMatrix in="SourceAlpha" type="matrix" values="0 0 0 0 0 0 0 0 0 0 0 0 0 0 0 0 0 0 127 0"/>
<feOffset/>
<feGaussianBlur stdDeviation="10"/>
<feColorMatrix type="matrix" values="0 0 0 0 0.788235 0 0 0 0 0.796078 0 0 0 0 0.819608 0 0 0 0.2 0"/>
<feBlend mode="normal" in2="BackgroundImageFix" result="effect1_dropShadow"/>
<feBlend mode="normal" in="SourceGraphic" in2="effect1_dropShadow" result="shape"/>
</filter>
</defs>
</svg>
